<svg viewBox="0 0 20 20" fill="currentColor" xmlns="http://www.w3.org/2000/svg">
<path d="M7.97998 12.4562L8.27641 12.4576C12.6807 12.4993 15.1833 13.4875 15.1833 16.1362C15.1833 18.7224 12.8002 19.7088 8.56844 19.7897L7.97998 19.7952C3.39172 19.7952 0.776672 18.8227 0.776672 16.1152C0.776672 13.4106 3.38017 12.4562 7.97998 12.4562ZM7.97998 13.9562L7.67206 13.9578C4.02613 13.996 2.14838 14.722 2.14838 16.1152C2.14838 17.5553 4.13785 18.2952 7.97998 18.2952C11.827 18.2952 13.8116 17.5674 13.8116 16.1362C13.8116 14.696 11.8221 13.9562 7.97998 13.9562ZM16.509 5.91908C16.8562 5.91908 17.1432 6.20123 17.1886 6.56731L17.1949 6.66908L17.1942 7.92388L18.3799 7.92398C18.7587 7.92398 19.0658 8.25976 19.0658 8.67398C19.0658 9.05367 18.8078 9.36747 18.473 9.41713L18.3799 9.42398L17.1942 9.42388L17.1949 10.6791C17.1949 11.0933 16.8878 11.4291 16.509 11.4291C16.1618 11.4291 15.8748 11.1469 15.8294 10.7808L15.8231 10.6791L15.8225 9.42388L14.6397 9.42398C14.2609 9.42398 13.9539 9.08819 13.9539 8.67398C13.9539 8.29428 14.2119 7.98049 14.5467 7.93082L14.6397 7.92398L15.8225 7.92388L15.8231 6.66908C15.8231 6.25486 16.1302 5.91908 16.509 5.91908ZM7.97998 -0.00012207C10.6779 -0.00012207 12.8432 2.36766 12.8432 5.31788C12.8432 8.26741 10.6776 10.6359 7.97998 10.6359C5.283 10.6359 3.11681 8.26709 3.11681 5.31788C3.11681 2.36799 5.28271 -0.00012207 7.97998 -0.00012207ZM7.97998 1.49988C6.04024 1.49988 4.48852 3.19646 4.48852 5.31788C4.48852 7.43866 6.04058 9.13588 7.97998 9.13588C9.91996 9.13588 11.4714 7.43904 11.4714 5.31788C11.4714 3.19609 9.9203 1.49988 7.97998 1.49988Z" fill="#666666"/>
</svg>
