<svg viewBox="0 0 18 20" fill="currentColor" xmlns="http://www.w3.org/2000/svg">
<path d="M12.3711 0C12.6913 0 12.9559 0.262469 12.9978 0.603004L13.0035 0.697674L13.0036 1.48626C15.6006 1.68121 17.1909 3.51888 17.1827 6.48579V14.9744C17.1827 18.1193 15.3972 20 12.5274 20H5.39562C2.52925 20 0.740385 18.0872 0.740385 14.9041V6.48579C0.740385 3.51995 2.33576 1.68177 4.92718 1.48635L4.92726 0.697674C4.92726 0.312359 5.21039 0 5.55965 0C5.87981 0 6.1444 0.262469 6.18628 0.603004L6.19205 0.697674L6.19192 1.469H11.7385L11.7387 0.697674C11.7387 0.312359 12.0219 0 12.3711 0ZM15.9175 8.283H2.00462L2.00517 14.9041C2.00517 17.2292 3.14202 18.5198 5.188 18.6006L5.39562 18.6047H12.5274C14.7114 18.6047 15.9179 17.3338 15.9179 14.9744L15.9175 8.283ZM12.7148 14.136C13.0641 14.136 13.3472 14.4484 13.3472 14.8337C13.3472 15.1869 13.1093 15.4788 12.8007 15.525L12.7148 15.5314C12.3578 15.5314 12.0746 15.219 12.0746 14.8337C12.0746 14.4805 12.3125 14.1886 12.6212 14.1424L12.7148 14.136ZM8.97321 14.136C9.32247 14.136 9.6056 14.4484 9.6056 14.8337C9.6056 15.1869 9.36769 15.4788 9.05902 15.525L8.97321 15.5314C8.61614 15.5314 8.333 15.219 8.333 14.8337C8.333 14.4805 8.57091 14.1886 8.87959 14.1424L8.97321 14.136ZM5.22377 14.136C5.57303 14.136 5.85616 14.4484 5.85616 14.8337C5.85616 15.1869 5.61825 15.4788 5.30958 15.525L5.21596 15.5314C4.86669 15.5314 4.58356 15.219 4.58356 14.8337C4.58356 14.4805 4.82147 14.1886 5.13014 14.1424L5.22377 14.136ZM12.7148 10.5206C13.0641 10.5206 13.3472 10.833 13.3472 11.2183C13.3472 11.5715 13.1093 11.8634 12.8007 11.9096L12.7148 11.916C12.3578 11.916 12.0746 11.6036 12.0746 11.2183C12.0746 10.8651 12.3125 10.5732 12.6212 10.527L12.7148 10.5206ZM8.97321 10.5206C9.32247 10.5206 9.6056 10.833 9.6056 11.2183C9.6056 11.5715 9.36769 11.8634 9.05902 11.9096L8.97321 11.916C8.61614 11.916 8.333 11.6036 8.333 11.2183C8.333 10.8651 8.57091 10.5732 8.87959 10.527L8.97321 10.5206ZM5.22377 10.5206C5.57303 10.5206 5.85616 10.833 5.85616 11.2183C5.85616 11.5715 5.61825 11.8634 5.30958 11.9096L5.21596 11.916C4.86669 11.916 4.58356 11.6036 4.58356 11.2183C4.58356 10.8651 4.82147 10.5732 5.13014 10.527L5.22377 10.5206ZM11.7385 2.864H6.19192L6.19205 3.75887C6.19205 4.14418 5.90892 4.45654 5.55965 4.45654C5.2395 4.45654 4.97491 4.19407 4.93303 3.85354L4.92726 3.75887L4.92637 2.88521C3.0413 3.05837 2.00517 4.3066 2.00517 6.48579L2.00462 6.887H15.9175L15.9179 6.48365C15.9239 4.30275 14.8931 3.05711 13.0036 2.88499L13.0035 3.75887C13.0035 4.14418 12.7204 4.45654 12.3711 4.45654C12.051 4.45654 11.7864 4.19407 11.7445 3.85354L11.7387 3.75887L11.7385 2.864Z" fill="#666666"/>
</svg>
