<svg width="20" height="20" viewBox="0 0 20 20" fill="none" xmlns="http://www.w3.org/2000/svg">
<path d="M13.9071 0C17.0083 0 19.0658 2.41665 19.0658 5.89317V14.1068C19.0658 17.5833 17.0083 20 13.9071 20H5.93503C2.8338 20 0.776306 17.5833 0.776306 14.1068V5.89317C0.776306 2.4199 2.83923 0 5.93503 0H13.9071ZM13.9071 1.39535H5.93503C3.56475 1.39535 2.05232 3.16949 2.05232 5.89317V14.1068C2.05232 16.8341 3.55971 18.6047 5.93503 18.6047H13.9071C16.2824 18.6047 17.7898 16.8341 17.7898 14.1068V5.89317C17.7898 3.16587 16.2824 1.39535 13.9071 1.39535ZM5.98364 7.6295C6.30664 7.6295 6.57358 7.89197 6.61582 8.2325L6.62165 8.32717V14.7087C6.62165 15.094 6.336 15.4064 5.98364 15.4064C5.66064 15.4064 5.39371 15.1439 5.35146 14.8034L5.34564 14.7087V8.32717C5.34564 7.94186 5.63128 7.6295 5.98364 7.6295ZM9.95345 4.57593C10.2764 4.57593 10.5434 4.8384 10.5856 5.17893L10.5915 5.2736V14.7087C10.5915 15.094 10.3058 15.4064 9.95345 15.4064C9.63045 15.4064 9.36352 15.1439 9.32127 14.8034L9.31544 14.7087V5.2736C9.31544 4.88829 9.60109 4.57593 9.95345 4.57593ZM13.8584 11.0017C14.1814 11.0017 14.4484 11.2642 14.4906 11.6047L14.4965 11.6994V14.7087C14.4965 15.094 14.2108 15.4064 13.8584 15.4064C13.5354 15.4064 13.2685 15.1439 13.2263 14.8034L13.2204 14.7087V11.6994C13.2204 11.3141 13.5061 11.0017 13.8584 11.0017Z" fill="#666666"/>
</svg>
