<svg width="26" height="26" viewBox="0 0 26 26" fill="none" xmlns="http://www.w3.org/2000/svg">
<path fill-rule="evenodd" clip-rule="evenodd" d="M12.7065 0.166992C16.0583 0.166992 19.2083 1.47016 21.5743 3.83733C26.465 8.72799 26.465 16.6847 21.5743 21.5753C19.1768 23.974 15.9486 25.2433 12.6785 25.2433C10.8958 25.2433 9.10147 24.8665 7.42264 24.0895C6.92797 23.8912 6.4648 23.7045 6.1323 23.7045C5.74964 23.7068 5.23514 23.8842 4.73814 24.0557C3.71847 24.4057 2.44914 24.842 1.50997 23.9063C0.574303 22.9695 1.00597 21.7037 1.35364 20.6852C1.52514 20.1835 1.7013 19.6655 1.7013 19.2735C1.7013 18.9515 1.54614 18.5408 1.30814 17.9493C-0.877031 13.2302 0.133303 7.54266 3.8398 3.83849C6.2058 1.47133 9.35464 0.166992 12.7065 0.166992ZM12.7076 1.91699C9.82247 1.91699 7.1123 3.03933 5.07647 5.07633C1.8868 8.26366 1.0188 13.1578 2.91464 17.2563C3.18764 17.9318 3.4513 18.5898 3.4513 19.2735C3.4513 19.956 3.2168 20.6432 3.0103 21.2498C2.83997 21.7492 2.58214 22.5028 2.7478 22.6685C2.90997 22.8365 3.6683 22.5717 4.1688 22.4002C4.76964 22.1948 5.45097 21.9592 6.12647 21.9545C6.80314 21.9545 7.4413 22.2112 8.1168 22.483C12.255 24.3963 17.1491 23.526 20.3376 20.3387C24.5446 16.1293 24.5446 9.28216 20.3376 5.07516C18.3006 3.03816 15.5916 1.91699 12.7076 1.91699ZM17.3124 12.0235C17.9564 12.0235 18.479 12.545 18.479 13.1901C18.479 13.8353 17.9564 14.3568 17.3124 14.3568C16.6684 14.3568 16.141 13.8353 16.141 13.1901C16.141 12.545 16.6579 12.0235 17.3019 12.0235H17.3124ZM12.6354 12.0235C13.2794 12.0235 13.8021 12.545 13.8021 13.1901C13.8021 13.8353 13.2794 14.3568 12.6354 14.3568C11.9914 14.3568 11.4641 13.8353 11.4641 13.1901C11.4641 12.545 11.9798 12.0235 12.6249 12.0235H12.6354ZM7.95802 12.0235C8.60202 12.0235 9.12469 12.545 9.12469 13.1901C9.12469 13.8353 8.60202 14.3568 7.95802 14.3568C7.31402 14.3568 6.78669 13.8353 6.78669 13.1901C6.78669 12.545 7.30352 12.0235 7.94752 12.0235H7.95802Z" fill="black" fill-opacity="0.6"/>
</svg>
