<svg viewBox="0 0 18 20" fill="currentColor" xmlns="http://www.w3.org/2000/svg">
<path d="M12.49 0C15.4094 0 17.155 1.92 17.1824 5.132V14.791C17.1824 18.048 15.4322 20 12.49 20H5.43348C5.05713 20 4.69997 19.968 4.36381 19.905L4.16468 19.864C1.99886 19.371 0.740112 17.555 0.740112 14.791V5.209C0.740112 4.875 0.758382 4.555 0.79492 4.249C1.11372 1.564 2.79905 0 5.43348 0H12.49ZM12.4817 1.457H5.43348C3.19002 1.457 2.05276 2.72 2.05276 5.209V14.791C2.05276 17.28 3.19002 18.543 5.43348 18.543H12.4817C14.7243 18.543 15.8542 17.28 15.8542 14.791V5.209C15.8542 2.72 14.7243 1.457 12.4817 1.457ZM12.2433 13.51C12.6032 13.51 12.8946 13.834 12.8946 14.234C12.8946 14.634 12.6032 14.958 12.2433 14.958H5.65636C5.29646 14.958 5.00415 14.634 5.00415 14.234C5.00415 13.834 5.29646 13.51 5.65636 13.51H12.2433ZM12.2433 9.271C12.4945 9.241 12.7403 9.373 12.8745 9.61C13.0088 9.849 13.0088 10.151 12.8745 10.39C12.7403 10.627 12.4945 10.759 12.2433 10.729H5.65636C5.32203 10.687 5.06901 10.374 5.06901 10C5.06901 9.626 5.32203 9.312 5.65636 9.271H12.2433ZM8.17021 5.042C8.50453 5.083 8.75756 5.397 8.75756 5.771C8.75756 6.144 8.50453 6.458 8.17021 6.499H5.66458C5.32934 6.458 5.07631 6.144 5.07631 5.771C5.07631 5.397 5.32934 5.083 5.66458 5.042H8.17021Z" fill="#666666"/>
</svg>
