<svg width="20" height="20" viewBox="0 0 20 20" fill="none" xmlns="http://www.w3.org/2000/svg">
<path d="M6.57271 0.000695509C6.88729 -0.0153045 7.21467 0.305696 7.21742 0.690696C7.22016 0.998696 7.45152 1.2477 7.73227 1.2477H8.66046C9.9773 1.2477 11.0619 2.4167 11.0792 3.8637V4.1037H13.6837C16.5944 4.0777 18.9382 6.4407 19.0608 9.5177C19.0653 9.6387 19.0663 9.7627 19.0644 9.8857V14.1957C19.1266 17.3037 16.8551 19.8997 14.0001 19.9687C13.883 19.9717 13.7724 19.9687 13.6608 19.9637C12.4007 19.9877 11.1332 19.9997 9.87214 19.9997C8.61839 19.9997 7.37105 19.9877 6.14383 19.9647C3.32816 20.0957 0.906635 17.6717 0.781352 14.5527C0.775865 14.4297 0.775865 14.3057 0.777694 14.1817V9.8697C0.747516 8.3727 1.25779 6.9387 2.21525 5.8457C3.17179 4.7517 4.46028 4.1317 5.84388 4.0997C5.95636 4.0957 6.07158 4.0967 6.18681 4.1047L9.80355 4.1037V3.8727C9.79532 3.1967 9.28139 2.6437 8.65589 2.6437H7.72678C6.75378 2.6437 5.9527 1.7767 5.94173 0.705696C5.93807 0.319696 6.22156 0.00469551 6.57271 0.000695509ZM5.95846 5.49374L5.87406 5.4947C4.82881 5.5197 3.85764 5.9857 3.13704 6.8107C2.4146 7.6337 2.03052 8.7147 2.05338 9.8557V14.1957C2.05156 14.3037 2.05242 14.3977 2.05613 14.4897C2.15032 16.8427 3.95915 18.6827 6.12645 18.5697C8.61291 18.6157 11.1396 18.6157 13.6763 18.5687C13.8007 18.5747 13.8885 18.5757 13.9754 18.5727C16.1235 18.5227 17.8363 16.5657 17.7887 14.2117V9.8697C17.7906 9.7647 17.7897 9.6717 17.786 9.5787C17.6936 7.2407 15.9662 5.4967 13.7577 5.4967C13.7358 5.4967 13.7175 5.4987 13.6882 5.4987H6.15571C6.04049 5.49373 5.95727 5.4927 5.87406 5.4947L5.95846 5.49374ZM7.25061 9.58533C7.59146 9.58533 7.87315 9.85765 7.91773 10.211L7.92387 10.3092L7.92304 11.3251L8.86932 11.3257C9.24115 11.3257 9.54258 11.6498 9.54258 12.0496C9.54258 12.416 9.28929 12.7189 8.96067 12.7668L8.86932 12.7734L7.92304 12.7731L7.92387 13.79C7.92387 14.1897 7.62245 14.5138 7.25061 14.5138C6.90977 14.5138 6.62808 14.2415 6.5835 13.8882L6.57735 13.79L6.57693 12.7731L5.63191 12.7734C5.26008 12.7734 4.95865 12.4494 4.95865 12.0496C4.95865 11.6831 5.21194 11.3803 5.54055 11.3323L5.63191 11.3257L6.57693 11.3251L6.57735 10.3092C6.57735 9.90942 6.87878 9.58533 7.25061 9.58533ZM14.3088 13.0131C14.6806 13.0131 14.9821 13.3372 14.9821 13.737C14.9821 14.1034 14.7288 14.4063 14.4002 14.4542L14.3088 14.4608H14.2184C13.8466 14.4608 13.5452 14.1367 13.5452 13.737C13.5452 13.3705 13.7984 13.0676 14.1271 13.0197L14.2184 13.0131H14.3088ZM12.7723 9.69134C13.1441 9.69134 13.4455 10.0154 13.4455 10.4152C13.4455 10.7817 13.1923 11.0845 12.8636 11.1325L12.7723 11.1391H12.6819C12.3101 11.1391 12.0086 10.815 12.0086 10.4152C12.0086 10.0487 12.2619 9.74588 12.5905 9.69795L12.6819 9.69134H12.7723Z" fill="#666666"/>
</svg>
