<svg viewBox="0 0 14 14" fill="currentColor" xmlns="http://www.w3.org/2000/svg">
<path fill-rule="evenodd" clip-rule="evenodd" d="M9.86694 0.333344C12.1236 0.333344 13.6403 1.91401 13.6403 4.26601V9.70068C13.6403 12.0527 12.1236 13.6333 9.86694 13.6333H4.10027C1.84694 13.6333 0.333603 12.0527 0.333603 9.70068V4.26601C0.333603 1.91401 1.84694 0.333344 4.10027 0.333344H9.86694ZM9.86694 1.33334H4.10027C2.4196 1.33334 1.3336 2.48468 1.3336 4.26601V9.70068C1.3336 11.4827 2.4196 12.6333 4.10027 12.6333H9.86694C11.5516 12.6333 12.6403 11.4827 12.6403 9.70068V4.26601C12.6403 2.48468 11.5516 1.33334 9.86694 1.33334ZM10.2929 7.06628C10.2972 7.06971 10.3013 7.07313 10.31 7.08124L10.3229 7.09353C10.3255 7.09606 10.3283 7.09885 10.3315 7.10193L10.3687 7.13888C10.4889 7.25926 10.8212 7.59865 11.8116 8.61561C12.0043 8.81294 12.0009 9.12961 11.8029 9.32228C11.6056 9.51628 11.2883 9.51028 11.0956 9.31294C11.0956 9.31294 9.7296 7.91094 9.63227 7.81628C9.52894 7.73161 9.36294 7.68228 9.1996 7.69828C9.0336 7.71494 8.88427 7.79428 8.77827 7.92294C7.22894 9.80228 7.21027 9.82028 7.18494 9.84494C6.61294 10.4063 5.6896 10.3969 5.1276 9.82361C5.1276 9.82361 4.5076 9.19428 4.49694 9.18161C4.34294 9.03894 4.06827 9.04828 3.9036 9.22228L2.8836 10.2976C2.78494 10.4016 2.65294 10.4536 2.52094 10.4536C2.39694 10.4536 2.2736 10.4083 2.17694 10.3163C1.97627 10.1269 1.96827 9.80961 2.15827 9.61028L3.17694 8.53494C3.71627 7.96228 4.62627 7.93428 5.2016 8.47428L5.84027 9.12228C6.01827 9.30228 6.3076 9.30561 6.48627 9.12961C6.5536 9.05028 8.0056 7.28694 8.0056 7.28694C8.2816 6.95228 8.67094 6.74561 9.1036 6.70294C9.53694 6.66494 9.9576 6.79094 10.2929 7.06628ZM4.70574 3.41928C5.62707 3.41994 6.37574 4.16928 6.37574 5.08861C6.37574 6.00928 5.6264 6.75861 4.70574 6.75861C3.78507 6.75861 3.0364 6.00928 3.0364 5.08861C3.0364 4.16794 3.78507 3.41928 4.70574 3.41928ZM4.70507 4.41928C4.3364 4.41928 4.0364 4.71928 4.0364 5.08861C4.0364 5.45794 4.3364 5.75861 4.70574 5.75861C5.07507 5.75861 5.37574 5.45794 5.37574 5.08861C5.37574 4.71994 5.07507 4.41994 4.70507 4.41928Z" fill="black" fill-opacity="0.46"/>
</svg>
