<svg viewBox="0 0 20 20" fill="currentColor" xmlns="http://www.w3.org/2000/svg">
<path d="M13.9156 0C17.0243 0 19.0961 2.42887 19.0961 5.91408V14.0849C19.0961 17.5703 17.0242 20 13.9156 20H5.99832C2.89113 20 0.82692 17.5722 0.82692 14.0849V5.91408C0.82692 2.43059 2.89716 0 5.99832 0H13.9156ZM13.9156 1.50383H5.99832C3.67752 1.50383 2.19986 3.2387 2.19986 5.91408V14.0849C2.19986 16.7647 3.67207 18.4962 5.99832 18.4962H13.9156C16.2442 18.4962 17.7232 16.7618 17.7232 14.0849V5.91408C17.7232 3.23744 16.2445 1.50383 13.9156 1.50383ZM14.5662 10.1835L14.6852 10.3086L16.5854 12.4561C16.8492 12.7543 16.8424 13.2303 16.5702 13.5193C16.3227 13.7821 15.941 13.7998 15.6754 13.5768L15.5995 13.5027L13.6994 11.3553C13.3684 10.9814 12.8303 10.9779 12.4943 11.3269L12.4206 11.4137L10.3807 14.1312C9.65918 15.0939 8.36095 15.1971 7.52099 14.3903L7.40939 14.2747L6.5953 13.3648C6.38146 13.1217 6.04044 13.0987 5.80296 13.2949L5.72796 13.3684L4.32847 14.9855C4.06765 15.2869 3.63316 15.2996 3.35801 15.0139C3.10787 14.7542 3.07553 14.3372 3.26768 14.0372L3.33206 13.9509L4.73125 12.3341C5.46785 11.4819 6.68086 11.4365 7.46552 12.1967L7.57989 12.3167L8.38987 13.222C8.62664 13.4865 9.00613 13.4933 9.25081 13.2553L9.31989 13.1766L11.3599 10.4589C12.1704 9.37823 13.6299 9.26886 14.5662 10.1835ZM6.83078 4.64124C8.09591 4.64124 9.12267 5.76589 9.12267 7.15164C9.12267 8.53738 8.09591 9.66204 6.83078 9.66204C5.5657 9.66204 4.5398 8.53744 4.5398 7.15164C4.5398 5.76583 5.5657 4.64124 6.83078 4.64124ZM6.83078 6.14507C6.3242 6.14507 5.91274 6.59611 5.91274 7.15164C5.91274 7.70716 6.3242 8.1582 6.83078 8.1582C7.33765 8.1582 7.74973 7.70684 7.74973 7.15164C7.74973 6.59643 7.33765 6.14507 6.83078 6.14507Z" fill="#666666"/>
</svg>
