<svg viewBox="0 0 104 28" fill="currentColor" xmlns="http://www.w3.org/2000/svg">
<path d="M5.55859 22.7637H16.7559V27H0.285156V1.40625H5.55859V22.7637ZM24.8242 27H19.7266V7.98047H24.8242V27ZM19.4277 3.05859C19.4277 2.29688 19.6797 1.66992 20.1836 1.17773C20.6992 0.685547 21.3965 0.439453 22.2754 0.439453C23.1426 0.439453 23.834 0.685547 24.3496 1.17773C24.8652 1.66992 25.123 2.29688 25.123 3.05859C25.123 3.83203 24.8594 4.46484 24.332 4.95703C23.8164 5.44922 23.1309 5.69531 22.2754 5.69531C21.4199 5.69531 20.7285 5.44922 20.2012 4.95703C19.6855 4.46484 19.4277 3.83203 19.4277 3.05859ZM33.7012 7.98047L33.8594 10.1777C35.2188 8.47852 37.041 7.62891 39.3262 7.62891C41.3418 7.62891 42.8418 8.2207 43.8262 9.4043C44.8105 10.5879 45.3145 12.3574 45.3379 14.7129V27H40.2578V14.8359C40.2578 13.7578 40.0234 12.9785 39.5547 12.498C39.0859 12.0059 38.3066 11.7598 37.2168 11.7598C35.7871 11.7598 34.7148 12.3691 34 13.5879V27H28.9199V7.98047H33.7012ZM56.1133 19.3711L54.2852 21.1992V27H49.2051V0H54.2852V14.959L55.2695 13.6934L60.1387 7.98047H66.2383L59.3652 15.9082L66.8359 27H61L56.1133 19.3711ZM76.8379 27.3516C74.0488 27.3516 71.7754 26.4961 70.0176 24.7852C68.2715 23.0742 67.3984 20.7949 67.3984 17.9473V17.4551C67.3984 15.5449 67.7676 13.8398 68.5059 12.3398C69.2441 10.8281 70.2871 9.66797 71.6348 8.85938C72.9941 8.03906 74.541 7.62891 76.2754 7.62891C78.877 7.62891 80.9219 8.44922 82.4102 10.0898C83.9102 11.7305 84.6602 14.0566 84.6602 17.0684V19.1426H72.5488C72.7129 20.3848 73.2051 21.3809 74.0254 22.1309C74.8574 22.8809 75.9062 23.2559 77.1719 23.2559C79.1289 23.2559 80.6582 22.5469 81.7598 21.1289L84.2559 23.9238C83.4941 25.002 82.4629 25.8457 81.1621 26.4551C79.8613 27.0527 78.4199 27.3516 76.8379 27.3516ZM76.2578 11.7422C75.25 11.7422 74.4297 12.082 73.7969 12.7617C73.1758 13.4414 72.7773 14.4141 72.6016 15.6797H79.668V15.2754C79.6445 14.1504 79.3398 13.2832 78.7539 12.6738C78.168 12.0527 77.3359 11.7422 76.2578 11.7422ZM86.7695 17.3496C86.7695 14.3848 87.4316 12.0234 88.7559 10.2656C90.0918 8.50781 91.9141 7.62891 94.2227 7.62891C96.0742 7.62891 97.6035 8.32031 98.8105 9.70312V0H103.908V27H99.3203L99.0742 24.9785C97.8086 26.5605 96.1797 27.3516 94.1875 27.3516C91.9492 27.3516 90.1504 26.4727 88.791 24.7148C87.4434 22.9453 86.7695 20.4902 86.7695 17.3496ZM91.8496 17.7188C91.8496 19.5 92.1602 20.8652 92.7812 21.8145C93.4023 22.7637 94.3047 23.2383 95.4883 23.2383C97.0586 23.2383 98.166 22.5762 98.8105 21.252V13.7461C98.1777 12.4219 97.082 11.7598 95.5234 11.7598C93.0742 11.7598 91.8496 13.7461 91.8496 17.7188Z" fill="#00ACFF"/>
</svg>
