<svg viewBox="0 0 40 40" fill="currentColor" xmlns="http://www.w3.org/2000/svg">
<path d="M0 12.8C0 8.31958 0 6.07937 0.871948 4.36808C1.63893 2.86278 2.86278 1.63893 4.36808 0.871948C6.07937 0 8.31958 0 12.8 0H27.2C31.6804 0 33.9206 0 35.6319 0.871948C37.1372 1.63893 38.3611 2.86278 39.1281 4.36808C40 6.07937 40 8.31958 40 12.8V27.2C40 31.6804 40 33.9206 39.1281 35.6319C38.3611 37.1372 37.1372 38.3611 35.6319 39.1281C33.9206 40 31.6804 40 27.2 40H12.8C8.31958 40 6.07937 40 4.36808 39.1281C2.86278 38.3611 1.63893 37.1372 0.871948 35.6319C0 33.9206 0 31.6804 0 27.2V12.8Z" fill="#00ACFF"/>
<path d="M12.4414 33H7.34375V13.9805H12.4414V33ZM7.04492 9.05859C7.04492 8.29688 7.29688 7.66992 7.80078 7.17773C8.31641 6.68555 9.01367 6.43945 9.89258 6.43945C10.7598 6.43945 11.4512 6.68555 11.9668 7.17773C12.4824 7.66992 12.7402 8.29688 12.7402 9.05859C12.7402 9.83203 12.4766 10.4648 11.9492 10.957C11.4336 11.4492 10.748 11.6953 9.89258 11.6953C9.03711 11.6953 8.3457 11.4492 7.81836 10.957C7.30273 10.4648 7.04492 9.83203 7.04492 9.05859ZM21.3184 13.9805L21.4766 16.1777C22.8359 14.4785 24.6582 13.6289 26.9434 13.6289C28.959 13.6289 30.459 14.2207 31.4434 15.4043C32.4277 16.5879 32.9316 18.3574 32.9551 20.7129V33H27.875V20.8359C27.875 19.7578 27.6406 18.9785 27.1719 18.498C26.7031 18.0059 25.9238 17.7598 24.834 17.7598C23.4043 17.7598 22.332 18.3691 21.6172 19.5879V33H16.5371V13.9805H21.3184Z" fill="white"/>
</svg>
