<svg viewBox="0 0 22 20" fill="currentColor" xmlns="http://www.w3.org/2000/svg">
<path d="M10.7771 0C16.6818 0 21.4686 4.47716 21.4686 10C21.4686 15.5228 16.6818 20 10.7771 20C4.87242 20 0.0856934 15.5228 0.0856934 10C0.0856934 4.47716 4.87242 0 10.7771 0ZM10.7771 1.39535C5.69633 1.39535 1.57752 5.24779 1.57752 10C1.57752 14.7522 5.69633 18.6047 10.7771 18.6047C15.8579 18.6047 19.9767 14.7522 19.9767 10C19.9767 5.24779 15.8579 1.39535 10.7771 1.39535ZM9.45935 6.04465L9.57059 6.05454C9.7716 6.08299 10.0435 6.16839 10.2846 6.2575C11.3807 6.65585 13.5264 8.00364 14.3465 8.82111L14.5855 9.05983L14.6707 9.15198C14.8451 9.35868 14.9364 9.61205 14.9364 9.87154C14.9364 10.1158 14.8546 10.357 14.6976 10.5567C14.6554 10.6104 14.6058 10.6617 14.4954 10.772L14.207 11.0528C13.3385 11.8463 11.4589 13.0232 10.3916 13.4432C10.0953 13.5596 9.66907 13.6921 9.46621 13.6963C8.99053 13.7104 8.54295 13.4649 8.32294 13.0673C8.26526 12.9626 8.1933 12.7142 8.13912 12.4811L8.08471 12.2189C7.98546 11.6482 7.93174 10.7822 7.93275 9.87225L7.93427 9.58384C7.94409 8.72626 8.00204 7.94479 8.10168 7.43665C8.14136 7.22989 8.22957 6.87387 8.2806 6.75855C8.39158 6.50941 8.59176 6.30819 8.83975 6.18402C9.03133 6.08735 9.24866 6.03789 9.45935 6.04465ZM9.60753 7.51163L9.5795 7.63757L9.54319 7.83642C9.46762 8.31899 9.42374 9.06877 9.42461 9.87229L9.42614 10.151C9.43505 10.8877 9.48235 11.5646 9.55671 11.9922L9.60853 12.227L9.81367 12.1568C10.7581 11.7852 12.6324 10.5965 13.2672 9.9564L13.353 9.86977L13.1265 9.65151C12.3653 8.96984 10.5811 7.86225 9.74028 7.55667L9.60753 7.51163Z" fill="#666666"/>
</svg>
