<svg viewBox="0 0 20 20" fill="currentColor" xmlns="http://www.w3.org/2000/svg">
<path d="M13.9071 -9.15527e-05C17.0083 -9.15527e-05 19.0658 2.41656 19.0658 5.89308V14.1067C19.0658 17.5833 17.0083 19.9999 13.9071 19.9999H5.93506C2.83383 19.9999 0.776337 17.5833 0.776337 14.1067V5.89308C0.776337 2.41981 2.83926 -9.15527e-05 5.93506 -9.15527e-05H13.9071ZM13.9071 1.39526H5.93506C3.56478 1.39526 2.05235 3.1694 2.05235 5.89308V14.1067C2.05235 16.834 3.55974 18.6046 5.93506 18.6046H13.9071C16.2824 18.6046 17.7898 16.834 17.7898 14.1067V5.89308C17.7898 3.16578 16.2824 1.39526 13.9071 1.39526ZM9.92107 5.88578C10.2441 5.88578 10.511 6.14824 10.5533 6.48878L10.5591 6.58345L10.5585 9.29291L13.0402 9.29338C13.3926 9.29338 13.6782 9.60574 13.6782 9.99106C13.6782 10.3443 13.4382 10.6362 13.1268 10.6824L13.0402 10.6887L10.5585 10.6879L10.5591 13.3987C10.5591 13.784 10.2734 14.0963 9.92107 14.0963C9.59808 14.0963 9.33114 13.8339 9.28889 13.4933L9.28307 13.3987L9.28277 10.6879L6.80194 10.6887C6.44958 10.6887 6.16393 10.3764 6.16393 9.99106C6.16393 9.63785 6.40395 9.34595 6.71536 9.29975L6.80194 9.29338L9.28277 9.29291L9.28307 6.58345C9.28307 6.19814 9.56871 5.88578 9.92107 5.88578Z" fill="#666666"/>
</svg>
