<svg width="20" height="24" viewBox="0 0 20 24" fill="none" xmlns="http://www.w3.org/2000/svg">
<path fill-rule="evenodd" clip-rule="evenodd" d="M19.1466 19.2253C19.1466 23.0706 13.8732 23.5151 9.90772 23.5151L9.62394 23.5149C7.09746 23.5088 0.66655 23.3492 0.66655 19.202C0.66655 15.4351 5.72796 14.9317 9.66328 14.9127L10.1915 14.9124C12.7178 14.9185 19.1466 15.078 19.1466 19.2253ZM9.90772 16.6621C4.93655 16.6621 2.41655 17.5161 2.41655 19.202C2.41655 20.903 4.93655 21.7651 9.90772 21.7651C14.8777 21.7651 17.3966 20.9111 17.3966 19.2253C17.3966 17.5243 14.8777 16.6621 9.90772 16.6621ZM9.90772 0.333008C13.3237 0.333008 16.1016 3.11201 16.1016 6.52801C16.1016 9.94401 13.3237 12.7218 9.90772 12.7218H9.87038C6.46138 12.7113 3.69988 9.93117 3.71151 6.52451C3.71151 3.11201 6.49055 0.333008 9.90772 0.333008ZM9.90772 1.99901C7.40988 1.99901 5.37753 4.03017 5.37753 6.52801C5.36938 9.01767 7.38655 11.0477 9.87389 11.057L9.90772 11.89V11.057C12.4044 11.057 14.4356 9.02467 14.4356 6.52801C14.4356 4.03017 12.4044 1.99901 9.90772 1.99901Z" fill="black" fill-opacity="0.6"/>
</svg>
