<svg width="18" height="18" viewBox="0 0 18 18" fill="none" xmlns="http://www.w3.org/2000/svg">
<path fill-rule="evenodd" clip-rule="evenodd" d="M8.78234 0.666626C13.2573 0.666626 16.8973 4.30663 16.8973 8.78163C16.8973 10.8929 16.0871 12.8185 14.7612 14.2637L17.3702 16.8672C17.6143 17.1114 17.6152 17.5064 17.371 17.7505C17.2493 17.8739 17.0885 17.9347 16.9285 17.9347C16.7693 17.9347 16.6093 17.8739 16.4868 17.7522L13.8464 15.1191C12.4574 16.2315 10.6962 16.8975 8.78234 16.8975C4.30734 16.8975 0.666504 13.2566 0.666504 8.78163C0.666504 4.30663 4.30734 0.666626 8.78234 0.666626ZM8.78234 1.91663C4.9965 1.91663 1.9165 4.99579 1.9165 8.78163C1.9165 12.5675 4.9965 15.6475 8.78234 15.6475C12.5673 15.6475 15.6473 12.5675 15.6473 8.78163C15.6473 4.99579 12.5673 1.91663 8.78234 1.91663Z" fill="#1C1C1C" fill-opacity="0.7"/>
</svg>
