<svg width="18" height="20" viewBox="0 0 18 20" fill="none" xmlns="http://www.w3.org/2000/svg">
<path d="M9.48449 2.17992e-07C10.1329 -0.000285658 10.7537 0.280614 11.2057 0.77871C11.6576 1.27681 11.9021 1.94968 11.8825 2.57766L11.8902 2.72535C11.906 2.87079 11.9502 3.01116 12.0219 3.14054C12.1615 3.39567 12.3901 3.58081 12.6573 3.65514C12.9245 3.72947 13.2083 3.68688 13.4771 3.51839L13.6269 3.4355C14.7517 2.86897 16.1007 3.31918 16.7246 4.47928L17.2853 5.52174C17.3001 5.54922 17.3131 5.57762 17.3244 5.60674L17.3764 5.71842C17.8779 6.86519 17.5211 8.22927 16.5683 8.92228L16.333 9.08068C16.21 9.17256 16.1075 9.29258 16.0303 9.43678C15.8911 9.69291 15.8528 9.99795 15.9241 10.2844C15.9954 10.5708 16.1703 10.8149 16.4357 10.9793L16.5883 11.0841C17.0495 11.4297 17.3827 11.9391 17.528 12.523C17.692 13.1817 17.604 13.8833 17.2793 14.4804L16.6761 15.557L16.5851 15.7089C15.8764 16.8008 14.5003 17.1344 13.4502 16.485L13.3257 16.4163C13.1959 16.3541 13.0558 16.3199 12.9283 16.316C12.6509 16.3146 12.3844 16.432 12.1882 16.6422C11.9921 16.8524 11.8825 17.1379 11.8832 17.4698L11.8758 17.6414C11.7742 18.9703 10.7358 20 9.48477 20H8.35508C7.03013 20 5.95604 18.8493 5.95738 17.4753L5.94962 17.3277C5.93384 17.1822 5.88964 17.0418 5.81434 16.9057C5.67777 16.65 5.45149 16.4633 5.1858 16.3871C4.92012 16.3109 4.63704 16.3516 4.36303 16.5213L4.20022 16.6084C3.68535 16.8565 3.1046 16.9023 2.56042 16.7366C1.94645 16.5497 1.42733 16.1083 1.12439 15.5224L0.541568 14.4442L0.463998 14.2844C-0.0667565 13.0841 0.349275 11.6412 1.40516 10.9875L1.50146 10.9228C1.78353 10.7137 1.95267 10.3688 1.95267 10C1.95267 9.59896 1.75297 9.22838 1.40364 9.01151L1.26189 8.91408C0.242733 8.15476 -0.0686588 6.68049 0.562696 5.50696L1.15645 4.46166C1.8168 3.23376 3.2802 2.81017 4.40573 3.50171L4.52757 3.5713C4.65178 3.63238 4.7867 3.6648 4.91661 3.66628C5.48944 3.66634 5.95613 3.17352 5.96481 2.54181L5.97259 2.3478C6.0195 1.74716 6.26277 1.1827 6.66046 0.754574C7.10915 0.27155 7.71901 2.17992e-07 8.35508 2.17992e-07H9.48449ZM9.48477 1.44774H8.35508C8.07851 1.44774 7.81335 1.56581 7.61826 1.77582C7.44535 1.96196 7.33957 2.20741 7.32101 2.43661L7.30873 2.7415C7.21412 4.07087 6.17738 5.11416 4.90953 5.11398C4.58271 5.11034 4.26052 5.03293 3.93196 4.87026L3.75604 4.77085C3.25482 4.46315 2.6157 4.64815 2.31911 5.19925L1.72535 6.24455C1.45328 6.75044 1.58935 7.39466 2.01062 7.70925L2.24904 7.871C2.90564 8.34666 3.30397 9.14295 3.30397 10C3.30397 10.8446 2.91676 11.634 2.24743 12.1296L2.10495 12.2256C1.63596 12.5163 1.45497 13.144 1.67295 13.6383L1.72442 13.7449L2.29985 14.8084C2.43498 15.0696 2.6617 15.2624 2.92984 15.344C3.1675 15.4164 3.42115 15.3964 3.61904 15.3018L3.71846 15.2497C4.26728 14.9066 4.9213 14.8126 5.53513 14.9886C6.14895 15.1645 6.67173 15.5959 6.98182 16.1768C7.14864 16.478 7.25419 16.8132 7.29505 17.1985L7.31348 17.552C7.37037 18.1145 7.815 18.5523 8.35508 18.5523H9.48477C10.031 18.5523 10.4847 18.1023 10.5273 17.5511L10.5325 17.4421C10.5294 16.7585 10.7816 16.1019 11.2327 15.6185C11.6839 15.1351 12.2967 14.865 12.9496 14.8686C13.27 14.8778 13.5852 14.9547 13.9075 15.11L14.1965 15.2682C14.65 15.4814 15.1879 15.3258 15.4606 14.9067L15.5269 14.7957L16.1161 13.7436C16.2554 13.4875 16.2936 13.1824 16.2223 12.896C16.1592 12.6422 16.0143 12.4207 15.8386 12.2882L15.5896 12.1195C15.1136 11.7748 14.7675 11.2563 14.6185 10.6574C14.4545 9.99866 14.5424 9.29707 14.8603 8.71262C15.0342 8.38716 15.2734 8.10733 15.5851 7.87532L15.7321 7.77613C16.2004 7.4827 16.3812 6.85504 16.1648 6.35884L16.1001 6.22529L16.0886 6.19726L15.5538 5.20208C15.3008 4.73175 14.7745 4.52853 14.3279 4.6891L14.2264 4.73265L14.1321 4.78415C13.585 5.12941 12.9323 5.22736 12.3177 5.05641C11.7032 4.88546 11.1774 4.45965 10.858 3.87616C10.6912 3.57504 10.5857 3.23984 10.5448 2.85454L10.5328 2.60249C10.5409 2.29923 10.4341 2.00536 10.2368 1.78783C10.0394 1.57029 9.76821 1.44774 9.48477 1.44774ZM8.92405 6.73182C10.6088 6.73182 11.9745 8.19503 11.9745 10C11.9745 11.805 10.6088 13.2682 8.92405 13.2682C7.23932 13.2682 5.87358 11.805 5.87358 10C5.87358 8.19503 7.23932 6.73182 8.92405 6.73182ZM8.92405 8.17956C7.98562 8.17956 7.22488 8.9946 7.22488 10C7.22488 11.0054 7.98562 11.8204 8.92405 11.8204C9.86247 11.8204 10.6232 11.0054 10.6232 10C10.6232 8.9946 9.86247 8.17956 8.92405 8.17956Z" fill="#666666"/>
</svg>
