<svg width="24" height="24" viewBox="0 0 24 24" fill="none" xmlns="http://www.w3.org/2000/svg">
<path d="M8.65723 22.2356V18.6683C8.65723 17.7576 9.40086 17.0194 10.3182 17.0194H13.6714C14.1119 17.0194 14.5343 17.1931 14.8458 17.5023C15.1573 17.8116 15.3323 18.231 15.3323 18.6683V22.2356C15.3295 22.6142 15.4791 22.9782 15.7478 23.2469C16.0164 23.5156 16.382 23.6667 16.7634 23.6667H19.0511C20.1196 23.6695 21.1452 23.25 21.9017 22.501C22.6582 21.7519 23.0833 20.7349 23.0833 19.6742V9.51138C23.0833 8.65458 22.7007 7.84186 22.0387 7.29215L14.2564 1.12189C12.9026 0.0400293 10.963 0.0749598 9.64961 1.20485L2.04484 7.29215C1.35152 7.82565 0.937134 8.64078 0.916656 9.51138V19.6638C0.916656 21.8745 2.72193 23.6667 4.94886 23.6667H7.18433C7.97642 23.6667 8.62015 23.0323 8.62589 22.246L8.65723 22.2356Z" fill="#666666"/>
</svg>
