<svg viewBox="0 0 12 15" fill="currentColor" xmlns="http://www.w3.org/2000/svg">
<path fill-rule="evenodd" clip-rule="evenodd" d="M11.1663 6.53392C11.443 6.53392 11.6663 6.75792 11.6663 7.03392C11.6663 10.0954 9.31659 12.6156 6.3332 12.8713L6.333 14.5C6.333 14.776 6.109 15 5.833 15C5.557 15 5.333 14.776 5.333 14.5L5.33346 12.8713C2.34975 12.616 -0.000335693 10.0956 -0.000335693 7.03392C-0.000335693 6.75792 0.223664 6.53392 0.499664 6.53392C0.776331 6.53392 0.999664 6.75792 0.999664 7.03392C0.999664 9.71259 3.16766 11.8926 5.833 11.8926C8.49833 11.8926 10.6663 9.71259 10.6663 7.03392C10.6663 6.75792 10.8903 6.53392 11.1663 6.53392ZM5.833 0.666656C7.60166 0.666656 9.041 2.11132 9.041 3.88732V7.01266C9.041 8.78799 7.60166 10.2327 5.833 10.2327C4.06433 10.2327 2.625 8.78799 2.625 7.01266V3.88732C2.625 2.11132 4.06433 0.666656 5.833 0.666656ZM5.833 1.66666C4.61566 1.66666 3.625 2.66266 3.625 3.88732V7.01266C3.625 8.23599 4.61566 9.23266 5.833 9.23266C7.05033 9.23266 8.041 8.23599 8.041 7.01266V3.88732C8.041 2.66266 7.05033 1.66666 5.833 1.66666Z" fill="black" fill-opacity="0.46"/>
</svg>
